<svg width="198" height="157" viewBox="0 0 198 157" fill="none" xmlns="http://www.w3.org/2000/svg">
<path d="M197.333 6C197.333 8.94552 194.946 11.3333 192 11.3333C189.054 11.3333 186.667 8.94552 186.667 6C186.667 3.05448 189.054 0.666667 192 0.666667C194.946 0.666667 197.333 3.05448 197.333 6ZM192.618 6.78646L188.638 9.91146L187.403 8.33854L191.382 5.21354L192.618 6.78646ZM180.68 16.1615L172.722 22.4115L171.487 20.8385L179.445 14.5885L180.68 16.1615ZM164.763 28.6615L156.805 34.9115L155.57 33.3385L163.528 27.0885L164.763 28.6615ZM148.847 41.1615L140.888 47.4115L139.653 45.8385L147.612 39.5885L148.847 41.1615ZM132.93 53.6615L124.972 59.9115L123.737 58.3385L131.695 52.0885L132.93 53.6615ZM117.013 66.1615L109.055 72.4115L107.82 70.8385L115.778 64.5885L117.013 66.1615ZM101.097 78.6615L93.1385 84.9115L91.9032 83.3385L99.8615 77.0885L101.097 78.6615ZM85.1801 91.1615L77.2218 97.4115L75.9865 95.8385L83.9449 89.5885L85.1801 91.1615ZM69.2635 103.661L61.3051 109.911L60.0699 108.339L68.0282 102.089L69.2635 103.661ZM53.3468 116.161L45.3885 122.411L44.1532 120.839L52.1115 114.589L53.3468 116.161ZM37.4301 128.661L29.4718 134.911L28.2365 133.339L36.1949 127.089L37.4301 128.661ZM21.5135 141.161L13.5551 147.411L12.3198 145.839L20.2782 139.589L21.5135 141.161ZM5.59679 153.661L1.61765 156.786L0.382355 155.214L4.3615 152.089L5.59679 153.661Z" fill="#A4A4A4"/>
</svg>
