<svg width="12" height="285" viewBox="0 0 12 285" fill="none" xmlns="http://www.w3.org/2000/svg">
<path d="M0.666667 6C0.666667 8.94552 3.05448 11.3333 6 11.3333C8.94552 11.3333 11.3333 8.94552 11.3333 6C11.3333 3.05448 8.94552 0.666667 6 0.666667C3.05448 0.666667 0.666667 3.05448 0.666667 6ZM5 6V10.9821H7V6H5ZM5 20.9464V30.9107H7V20.9464H5ZM5 40.875V50.8393H7V40.875H5ZM5 60.8036V70.7679H7V60.8036H5ZM5 80.7321V90.6964H7V80.7321H5ZM5 100.661V110.625H7V100.661H5ZM5 120.589V130.554H7V120.589H5ZM5 140.518V150.482H7V140.518H5ZM5 160.446V170.411H7V160.446H5ZM5 180.375V190.339H7V180.375H5ZM5 200.304V210.268H7V200.304H5ZM5 220.232V230.196H7V220.232H5ZM5 240.161V250.125H7V240.161H5ZM5 260.089V270.053H7V260.089H5ZM5 280.018V285H7V280.018H5Z" fill="#020202"/>
</svg>
