<svg width="24" height="25" viewBox="0 0 24 25" fill="none" xmlns="http://www.w3.org/2000/svg">
<path d="M20.6633 19.271C20.6633 19.271 19.5047 20.409 19.2207 20.7426C18.7582 21.2362 18.2132 21.4693 17.4988 21.4693C17.4301 21.4693 17.3568 21.4693 17.2881 21.4647C15.9279 21.3779 14.6639 20.8477 13.7159 20.3953C11.1238 19.143 8.84771 17.3651 6.95629 15.1119C5.39461 13.2335 4.35044 11.4968 3.65891 9.63211C3.233 8.4941 3.07729 7.60745 3.14598 6.77108C3.19178 6.23635 3.39787 5.79303 3.77798 5.41369L5.33966 3.8552C5.56406 3.64497 5.80221 3.53071 6.03577 3.53071C6.32429 3.53071 6.55786 3.70438 6.70441 3.85063C6.70899 3.8552 6.71357 3.85977 6.71815 3.86434C6.99751 4.12485 7.26313 4.3945 7.54249 4.68243C7.68446 4.82869 7.83101 4.97494 7.97756 5.12576L9.22782 6.37346C9.71327 6.85792 9.71327 7.30581 9.22782 7.79027C9.09501 7.92281 8.96678 8.05534 8.83397 8.18331C8.44927 8.57636 8.75147 8.27478 8.35304 8.63127C8.34388 8.64041 8.33472 8.64498 8.33014 8.65412C7.93629 9.04717 8.00956 9.43108 8.092 9.69159C8.09658 9.7053 8.10116 9.71901 8.10573 9.73272C8.43089 10.5188 8.88886 11.2592 9.58498 12.1413L9.58956 12.1459C10.8536 13.6998 12.1862 14.9109 13.6563 15.8387C13.8441 15.9575 14.0364 16.0535 14.2196 16.1449C14.3845 16.2272 14.5402 16.3049 14.673 16.3871C14.6913 16.3963 14.7097 16.41 14.728 16.4191C14.8837 16.4968 15.0302 16.5334 15.1814 16.5334C15.5615 16.5334 15.7996 16.2957 15.8775 16.218L16.7752 15.3222C16.9309 15.1668 17.1782 14.9794 17.4667 14.9794C17.7506 14.9794 17.9842 15.1577 18.1262 15.313C18.1308 15.3176 18.1308 15.3176 18.1353 15.3222L20.6587 17.8404C21.1305 18.3066 20.6633 19.271 20.6633 19.271Z" stroke="white" stroke-width="2" stroke-linecap="round" stroke-linejoin="round"/>
</svg>
