<svg width="50" height="50" viewBox="0 0 50 50" fill="none" xmlns="http://www.w3.org/2000/svg">
<path fill-rule="evenodd" clip-rule="evenodd" d="M29.4701 4.51005C28.3301 -0.170018 21.6699 -0.170018 20.5299 4.51005C20.3597 5.21331 20.0258 5.86645 19.5555 6.41632C19.0852 6.96618 18.4917 7.39724 17.8233 7.67441C17.1549 7.95159 16.4306 8.06704 15.7091 8.01138C14.9877 7.95572 14.2896 7.73052 13.6716 7.3541C9.55552 4.84606 4.84537 9.55613 7.35345 13.6722C8.9735 16.3302 7.53645 19.7983 4.51236 20.5333C-0.170787 21.6703 -0.170787 28.3334 4.51236 29.4674C5.21582 29.6379 5.86908 29.972 6.41895 30.4427C6.96883 30.9133 7.39976 31.5072 7.67668 32.176C7.95359 32.8447 8.06865 33.5694 8.01248 34.291C7.95631 35.0126 7.7305 35.7107 7.35345 36.3286C4.84537 40.4446 9.55552 45.1547 13.6716 42.6467C14.2895 42.2696 14.9876 42.0438 15.7093 41.9876C16.4309 41.9315 17.1556 42.0465 17.8243 42.3234C18.4931 42.6003 19.0869 43.0313 19.5576 43.5811C20.0283 44.131 20.3624 44.7843 20.5329 45.4877C21.6699 50.1708 28.3331 50.1708 29.4671 45.4877C29.6381 44.7846 29.9726 44.1318 30.4434 43.5823C30.9142 43.0328 31.508 42.6022 32.1765 42.3254C32.845 42.0485 33.5694 41.9334 34.2909 41.9892C35.0123 42.045 35.7104 42.2703 36.3284 42.6467C40.4445 45.1547 45.1546 40.4446 42.6466 36.3286C42.2702 35.7106 42.0449 35.0125 41.9891 34.2911C41.9332 33.5697 42.0484 32.8453 42.3253 32.1767C42.6021 31.5082 43.0327 30.9144 43.5822 30.4437C44.1317 29.9729 44.7846 29.6384 45.4876 29.4674C50.1708 28.3304 50.1708 21.6673 45.4876 20.5333C44.7842 20.3629 44.1309 20.0287 43.5811 19.5581C43.0312 19.0874 42.6002 18.4935 42.3233 17.8248C42.0464 17.1561 41.9314 16.4314 41.9875 15.7098C42.0437 14.9882 42.2695 14.29 42.6466 13.6722C45.1546 9.55613 40.4445 4.84606 36.3284 7.3541C35.7105 7.73115 35.0124 7.95695 34.2907 8.01312C33.5691 8.06929 32.8444 7.95423 32.1757 7.67732C31.5069 7.40041 30.9131 6.96948 30.4424 6.41962C29.9717 5.86975 29.6376 5.2165 29.4671 4.51305L29.4701 4.51005Z" stroke="#881103" stroke-width="2"/>
<path d="M30.3333 25C30.3333 27.9455 27.9455 30.3333 25 30.3333C22.0545 30.3333 19.6667 27.9455 19.6667 25C19.6667 22.0545 22.0545 19.6667 25 19.6667C27.9455 19.6667 30.3333 22.0545 30.3333 25Z" stroke="#881103" stroke-width="2"/>
</svg>
