<svg width="205" height="20" viewBox="0 0 205 20" fill="none" xmlns="http://www.w3.org/2000/svg">
<path d="M23.6939 20C22.2597 20 20.9391 19.7501 19.7322 19.2503C18.5254 18.7506 17.4759 18.0544 16.5839 17.162C15.6919 16.2517 15.001 15.1896 14.5113 13.9759C14.0215 12.7443 13.7766 11.4145 13.7766 9.98661C13.7766 8.55868 14.0215 7.23784 14.5113 6.0241C15.001 4.81035 15.6919 3.75725 16.5839 2.86479C17.4759 1.95448 18.5254 1.24944 19.7322 0.749665C20.9391 0.249888 22.2597 0 23.6939 0C25.1281 0 26.4487 0.249888 27.6556 0.749665C28.8624 1.24944 29.9119 1.95448 30.8039 2.86479C31.6959 3.75725 32.3868 4.81035 32.8766 6.0241C33.3663 7.23784 33.6112 8.55868 33.6112 9.98661C33.6112 11.4145 33.3663 12.7443 32.8766 13.9759C32.3868 15.1896 31.6959 16.2517 30.8039 17.162C29.9119 18.0544 28.8624 18.7506 27.6556 19.2503C26.4487 19.7501 25.1281 20 23.6939 20ZM23.6939 17.2691C25.0232 17.2691 26.1951 16.9567 27.2095 16.332C28.224 15.7073 29.0198 14.8505 29.597 13.7617C30.1742 12.6551 30.4628 11.3967 30.4628 9.98661C30.4628 9.42081 30.4164 8.88087 30.3234 8.3668C30.1848 7.59971 29.9426 6.8902 29.597 6.23829C29.0198 5.14949 28.224 4.29273 27.2095 3.668C26.1951 3.04328 25.0232 2.73092 23.6939 2.73092C22.3821 2.73092 21.2102 3.04328 20.1783 3.668C19.1638 4.29273 18.368 5.14949 17.7908 6.23829C17.4452 6.8902 17.203 7.59971 17.0644 8.3668C16.9714 8.88087 16.925 9.42081 16.925 9.98661C16.925 11.3967 17.2136 12.6551 17.7908 13.7617C18.368 14.8505 19.1638 15.7073 20.1783 16.332C21.2102 16.9567 22.3821 17.2691 23.6939 17.2691Z" fill="#881103"/>
<path d="M48.3126 19.5716H36.1915V0.428379H39.2087V16.8942H48.3126V19.5716Z" fill="white"/>
<path d="M50.4185 19.5716V0.428379H56.7939C58.7878 0.428379 60.5281 0.83891 62.0149 1.65997C63.5191 2.48103 64.6822 3.61446 65.5043 5.06024C66.3438 6.48817 66.7636 8.1303 66.7636 9.98661C66.7636 11.8429 66.3438 13.494 65.5043 14.9398C64.6822 16.3855 63.5191 17.519 62.0149 18.34C60.5281 19.1611 58.7878 19.5716 56.7939 19.5716H50.4185ZM53.4356 16.921H56.7939C58.1931 16.921 59.4 16.6354 60.4145 16.0643C61.4464 15.4752 62.2335 14.6631 62.7757 13.6278C63.3354 12.5926 63.6153 11.3788 63.6153 9.98661C63.6153 8.59438 63.3354 7.38063 62.7757 6.34538C62.2335 5.31013 61.4464 4.50692 60.4145 3.93574C59.4 3.36457 58.1931 3.07898 56.7939 3.07898H53.4356V16.921Z" fill="white"/>
<path d="M67.7704 16.4391L69.8693 14.3507C70.3416 14.9576 70.9013 15.4842 71.5484 15.9304C72.2131 16.3766 72.9214 16.7158 73.6736 16.9478C74.4431 17.1798 75.2477 17.2959 76.0873 17.2959C76.9968 17.2959 77.7839 17.1709 78.4485 16.921C79.1307 16.6711 79.6641 16.3141 80.0489 15.8501C80.4337 15.386 80.6261 14.8505 80.6261 14.2436C80.6261 13.4226 80.2588 12.7711 79.5242 12.2892C78.8071 11.8072 77.539 11.4235 75.72 11.1379C74.0234 10.888 72.6503 10.531 71.6009 10.0669C70.5515 9.60286 69.7819 9.01383 69.2921 8.29987C68.8199 7.5859 68.5837 6.74699 68.5837 5.78313C68.5837 4.64078 68.8898 3.64123 69.502 2.78447C70.1317 1.90986 70.9887 1.23159 72.0732 0.749665C73.1751 0.249888 74.4344 0 75.8512 0C77.4953 0 78.947 0.321285 80.2064 0.963854C81.4832 1.60642 82.5763 2.46319 83.4859 3.53414L81.4394 5.62249C80.7573 4.71218 79.9527 3.99821 79.0257 3.48059C78.1162 2.94511 77.0668 2.67738 75.8774 2.67738C74.6355 2.67738 73.6211 2.94511 72.834 3.48059C72.0469 4.01606 71.6534 4.73003 71.6534 5.62249C71.6534 6.10442 71.802 6.51495 72.0994 6.85408C72.3967 7.17537 72.8865 7.45203 73.5686 7.68407C74.2682 7.91611 75.1953 8.12137 76.3496 8.29987C78.0812 8.5676 79.4805 8.95136 80.5474 9.45114C81.6319 9.95091 82.4277 10.5846 82.9349 11.3521C83.4421 12.1196 83.6958 13.0388 83.6958 14.1098C83.6958 15.2878 83.3722 16.3231 82.725 17.2155C82.0779 18.0901 81.1771 18.7773 80.0227 19.2771C78.8683 19.759 77.539 20 76.0348 20C74.2682 20 72.6941 19.6787 71.3123 19.0361C69.9305 18.3936 68.7499 17.5279 67.7704 16.4391Z" fill="white"/>
<path d="M140.907 19.5716H128.786V0.428379H131.803V16.8942H140.907V19.5716Z" fill="white"/>
<path d="M189.075 16.4391L191.174 14.3507C191.646 14.9576 192.206 15.4842 192.853 15.9304C193.517 16.3766 194.226 16.7158 194.978 16.9478C195.747 17.1798 196.552 17.2959 197.392 17.2959C198.301 17.2959 199.088 17.1709 199.753 16.921C200.435 16.6711 200.968 16.3141 201.353 15.8501C201.738 15.386 201.93 14.8505 201.93 14.2436C201.93 13.4226 201.563 12.7711 200.828 12.2892C200.111 11.8072 198.843 11.4235 197.024 11.1379C195.328 10.888 193.955 10.531 192.905 10.0669C191.856 9.60286 191.086 9.01383 190.596 8.29987C190.124 7.5859 189.888 6.74699 189.888 5.78313C189.888 4.64078 190.194 3.64123 190.806 2.78447C191.436 1.90986 192.293 1.23159 193.377 0.749665C194.479 0.249888 195.739 0 197.155 0C198.8 0 200.251 0.321285 201.511 0.963854C202.787 1.60642 203.881 2.46319 204.79 3.53414L202.744 5.62249C202.062 4.71218 201.257 3.99821 200.33 3.48059C199.42 2.94511 198.371 2.67738 197.182 2.67738C195.94 2.67738 194.925 2.94511 194.138 3.48059C193.351 4.01606 192.958 4.73003 192.958 5.62249C192.958 6.10442 193.106 6.51495 193.404 6.85408C193.701 7.17537 194.191 7.45203 194.873 7.68407C195.572 7.91611 196.499 8.12137 197.654 8.29987C199.385 8.5676 200.785 8.95136 201.852 9.45114C202.936 9.95091 203.732 10.5846 204.239 11.3521C204.746 12.1196 205 13.0388 205 14.1098C205 15.2878 204.676 16.3231 204.029 17.2155C203.382 18.0901 202.481 18.7773 201.327 19.2771C200.173 19.759 198.843 20 197.339 20C195.572 20 193.998 19.6787 192.617 19.0361C191.235 18.3936 190.054 17.5279 189.075 16.4391Z" fill="white"/>
<path d="M22.9566 9.20348L17.0644 8.3668L22.1367 11.7135L20.1783 16.332L23.7765 12.5502L27.2095 16.332L25.4163 11.7135L30.3234 8.3668L24.5964 9.20348L23.7765 3.34672L22.9566 9.20348Z" fill="white"/>
<path fill-rule="evenodd" clip-rule="evenodd" d="M0 19.5716H3.01716V11.1647H11.885V8.54083H3.01716V3.05221H12.3835V0.428379H0V19.5716ZM3.01716 8.54083H2.7548V11.1647H3.01716V8.54083Z" fill="white"/>
<path d="M2.7548 8.54083V11.1647H3.01716V8.54083H2.7548Z" fill="white"/>
<path fill-rule="evenodd" clip-rule="evenodd" d="M106.12 11.6198L103.69 15.0603L106.697 17.8581L104.86 19.8394L102.046 17.1595C101.296 17.9751 100.546 18.6007 99.7968 19.0361C98.6773 19.6787 97.418 20 96.0188 20C94.7244 20 93.5963 19.768 92.6343 19.3039C91.6898 18.822 90.9552 18.1705 90.4305 17.3494C89.9232 16.5105 89.6696 15.5823 89.6696 14.5649C89.6696 13.1013 90.1681 11.8608 91.1651 10.8434C91.777 10.2297 92.6339 9.66796 93.6667 9.18169C93.667 9.18202 93.6673 9.18234 93.6676 9.18267C93.956 9.4799 94.2762 9.7925 94.6282 10.1205L95.0742 10.5221L95.287 10.7247C94.5542 11.0923 93.9344 11.5209 93.5526 11.9679C92.9754 12.664 92.6868 13.4494 92.6868 14.324C92.6868 15.2343 93.0016 16.0018 93.6313 16.6265C94.2609 17.2512 95.1005 17.5636 96.1499 17.5636C96.7271 17.5636 97.2781 17.4654 97.8028 17.2691C98.3275 17.0727 98.861 16.7336 99.4032 16.2517C99.6688 16.0145 99.9384 15.7351 100.212 15.4136L95.287 10.7247L95.3356 10.7004C95.7305 10.5051 96.157 10.3274 96.5959 10.174C97.0538 10.029 97.4904 9.86399 97.9055 9.67896L101.776 13.2799L104.021 10.0937L106.12 11.6198ZM96.2208 8.21483C96.4464 8.42085 96.6939 8.63662 96.9632 8.86211L97.488 9.2905L97.9055 9.67896C98.4101 9.45408 98.8831 9.19964 99.3245 8.91566C100.129 8.38019 100.759 7.76439 101.214 7.06827C101.668 6.37215 101.896 5.59572 101.896 4.73896C101.896 3.86435 101.668 3.07006 101.214 2.35609C100.759 1.64212 100.138 1.07095 99.3507 0.64257C98.5637 0.21419 97.6716 0 96.6747 0C95.6952 0 94.8119 0.21419 94.0248 0.64257C93.2377 1.0531 92.6081 1.61535 92.1358 2.32932C91.681 3.04328 91.4537 3.83757 91.4537 4.71218C91.4537 5.28336 91.5499 5.8456 91.7423 6.39893C91.9347 6.9344 92.2582 7.50558 92.713 8.11245C92.9784 8.44349 93.2963 8.79991 93.6667 9.18169C94.3462 8.86179 95.1018 8.57454 95.9138 8.32664C96.0184 8.29047 96.1207 8.2532 96.2208 8.21483ZM96.2208 8.21483C95.8748 7.89901 95.5801 7.60607 95.3366 7.33601C94.9343 6.87193 94.6457 6.44355 94.4708 6.05087C94.2959 5.64034 94.2085 5.22981 94.2085 4.81928C94.2085 4.10531 94.4533 3.51629 94.9431 3.05221C95.4328 2.57028 96.0188 2.32932 96.7009 2.32932C97.4355 2.32932 98.0389 2.57028 98.5112 3.05221C99.0009 3.53414 99.2458 4.14101 99.2458 4.87282C99.2458 5.67604 98.9485 6.36323 98.3538 6.9344C97.8193 7.4477 97.1083 7.87451 96.2208 8.21483Z" fill="white"/>
<path d="M96.5959 10.174L95.9138 8.32664C95.1018 8.57454 94.3462 8.86179 93.6667 9.18169C93.667 9.18202 93.6673 9.18234 93.6676 9.18267C93.956 9.4799 94.2762 9.7925 94.6282 10.1205L95.0742 10.5221L95.287 10.7247L95.3356 10.7004C95.7305 10.5051 96.157 10.3274 96.5959 10.174Z" fill="white"/>
<path d="M95.9138 8.32664L96.5959 10.174C97.0538 10.029 97.4904 9.86399 97.9055 9.67896L97.488 9.2905L96.9632 8.86211C96.6939 8.63662 96.4464 8.42085 96.2208 8.21483C96.1207 8.2532 96.0184 8.29047 95.9138 8.32664Z" fill="white"/>
<path fill-rule="evenodd" clip-rule="evenodd" d="M146.69 14.9665L144.954 19.5716H141.858L149.283 0.428379H152.589L160.014 19.5716H156.813L155.077 14.9665H156.288V12.3427H154.088L150.883 3.83936L147.679 12.3427H154.088L155.077 14.9665H146.69Z" fill="white"/>
<path d="M156.288 14.9665V12.3427H154.088L155.077 14.9665H156.288Z" fill="white"/>
<path fill-rule="evenodd" clip-rule="evenodd" d="M163.785 19.5716H166.802V3.07898V2.81124H163.785V3.07898V19.5716Z" fill="white"/>
<path d="M163.785 2.81124H166.802V3.07898H172.81V0.428379H157.803V3.07898H163.785V2.81124Z" fill="white"/>
<path fill-rule="evenodd" clip-rule="evenodd" d="M174.9 19.5716H187.808V16.9478H177.917V11.1647H187.309V8.54083H177.917V3.05221H187.808V0.428379H174.9V19.5716ZM177.917 8.54083H177.655V11.1647H177.917V8.54083Z" fill="white"/>
<path d="M177.655 8.54083V11.1647H177.917V8.54083H177.655Z" fill="white"/>
<path fill-rule="evenodd" clip-rule="evenodd" d="M112.432 19.5716H115.449V11.7805H119.936C121.23 11.7805 122.367 11.5484 123.346 11.0843C124.326 10.6024 125.087 9.93307 125.629 9.0763C126.189 8.21954 126.468 7.22892 126.468 6.10442C126.468 4.96207 126.189 3.97144 125.629 3.13253C125.087 2.27577 124.326 1.61535 123.346 1.15127C122.367 0.669343 121.23 0.428379 119.936 0.428379H112.432V19.5716ZM115.449 9.15663H115.187V11.7805H115.449V9.15663ZM115.449 9.15663V3.05221H119.936C121.003 3.05221 121.842 3.32887 122.454 3.88219C123.084 4.41767 123.399 5.15841 123.399 6.10442C123.399 7.05042 123.084 7.80009 122.454 8.35341C121.842 8.88889 121.003 9.15663 119.936 9.15663H115.449Z" fill="white"/>
<path d="M115.187 9.15663V11.7805H115.449V9.15663H115.187Z" fill="white"/>
</svg>
