<svg width="88" height="89" viewBox="0 0 88 89" fill="none" xmlns="http://www.w3.org/2000/svg">
<path d="M44 89C37.6367 89 31.7778 87.888 26.4233 85.664C21.0688 83.44 16.4127 80.3423 12.455 76.3708C8.49735 72.3199 5.4321 67.5939 3.25926 62.1928C1.08642 56.7122 0 50.7947 0 44.4404C0 38.0861 1.08642 32.2084 3.25926 26.8072C5.4321 21.4061 8.49735 16.7198 12.455 12.7483C16.4127 8.69746 21.0688 5.56002 26.4233 3.33601C31.7778 1.112 37.6367 0 44 0C50.3633 0 56.2222 1.112 61.5767 3.33601C66.9312 5.56002 71.5873 8.69746 75.545 12.7483C79.5026 16.7198 82.5679 21.4061 84.7407 26.8072C86.9136 32.2084 88 38.0861 88 44.4404C88 50.7947 86.9136 56.7122 84.7407 62.1928C82.5679 67.5939 79.5026 72.3199 75.545 76.3708C71.5873 80.3423 66.9312 83.44 61.5767 85.664C56.2222 87.888 50.3633 89 44 89ZM44 76.8474C49.8977 76.8474 55.097 75.4574 59.5979 72.6774C64.0988 69.8974 67.6296 66.0848 70.1905 61.2396C72.7513 56.315 74.0318 50.7153 74.0318 44.4404C74.0318 41.9226 73.8256 39.5199 73.4133 37.2323C72.7981 33.8187 71.7238 30.6614 70.1905 27.7604C67.6296 22.9152 64.0988 19.1026 59.5979 16.3226C55.097 13.5426 49.8977 12.1526 44 12.1526C38.1799 12.1526 32.9806 13.5426 28.4021 16.3226C23.9012 19.1026 20.3704 22.9152 17.8095 27.7604C16.2762 30.6614 15.202 33.8187 14.5867 37.2323C14.1744 39.5199 13.9683 41.9226 13.9683 44.4404C13.9683 50.7153 15.2487 56.315 17.8095 61.2396C20.3704 66.0848 23.9012 69.8974 28.4021 72.6774C32.9806 75.4574 38.1799 76.8474 44 76.8474Z" fill="#881103"/>
<path d="M40.7289 40.9555L14.5867 37.2323L37.0914 52.1252L28.4021 72.6774L44.3665 55.8484L59.5979 72.6774L51.6416 52.1252L73.4133 37.2323L48.0041 40.9555L44.3665 14.8929L40.7289 40.9555Z" fill="#020202"/>
</svg>
