<svg width="16" height="16" viewBox="0 0 16 16" fill="none" xmlns="http://www.w3.org/2000/svg">
<path d="M15.2195 13.6425C15.2195 13.6425 14.2539 14.5908 14.0173 14.8688C13.6318 15.2802 13.1777 15.4744 12.5823 15.4744C12.5251 15.4744 12.464 15.4744 12.4068 15.4706C11.2733 15.3982 10.22 14.9564 9.42997 14.5794C7.26988 13.5358 5.37312 12.0543 3.79694 10.1766C2.49554 8.61128 1.6254 7.16401 1.04912 5.61009C0.694195 4.66175 0.564436 3.92288 0.621683 3.2259C0.659847 2.78029 0.831586 2.41085 1.14835 2.09474L2.44975 0.796001C2.63675 0.620804 2.8352 0.525589 3.02984 0.525589C3.27027 0.525589 3.46491 0.670316 3.58704 0.792192C3.59085 0.796001 3.59467 0.79981 3.59849 0.803618C3.83129 1.02071 4.05264 1.24542 4.28544 1.48536C4.40375 1.60724 4.52587 1.72911 4.648 1.8548L5.68988 2.89455C6.09442 3.29826 6.09442 3.67151 5.68988 4.07522C5.57921 4.18567 5.47235 4.29612 5.36167 4.40276C5.04109 4.7303 5.29292 4.47898 4.9609 4.77605C4.95326 4.78367 4.94563 4.78748 4.94181 4.7951C4.6136 5.12264 4.67466 5.44256 4.74336 5.65965C4.74718 5.67108 4.75099 5.68251 4.75481 5.69393C5.02577 6.34901 5.40742 6.96601 5.98751 7.70107L5.99133 7.70488C7.04466 8.99981 8.15523 10.0091 9.3803 10.7822C9.53678 10.8813 9.69707 10.9612 9.84972 11.0374C9.98711 11.106 10.1169 11.1707 10.2275 11.2393C10.2428 11.2469 10.2581 11.2583 10.2733 11.2659C10.4031 11.3307 10.5252 11.3612 10.6512 11.3612C10.9679 11.3612 11.1664 11.1631 11.2313 11.0984L11.9793 10.3518C12.1091 10.2223 12.3152 10.0662 12.5556 10.0662C12.7922 10.0662 12.9869 10.2147 13.1052 10.3442C13.109 10.348 13.109 10.348 13.1128 10.3518L15.2157 12.4504C15.6087 12.8388 15.2195 13.6425 15.2195 13.6425Z" stroke="white" stroke-linecap="round" stroke-linejoin="round"/>
</svg>
